# AST/ASF file generated using VICON BodyLanguage
# -----------------------------------------------
:version 1.10
:name VICON
:units
  mass 1.0
  length 0.45
  angle deg
:documentation
   .ast/.asf automatically generated from VICON data using
   VICON BodyBuilder and BodyLanguage model FoxedUp or BRILLIANT.MOD
:root
   order TX TY TZ RX RY RZ
   axis XYZ
   position 0 0 0  
   orientation 0 0 0 
:bonedata
  begin
     id 1 
     name lhipjoint
     direction 0.62366 -0.717238 0.310833 
     length 2.53602 
     axis 0 0 0  XYZ
  end
  begin
     id 2 
     name lfemur
     direction 0.34202 -0.939693 0  
     length 7.40817  
     axis 0 0 20  XYZ
    dof rx ry rz
    limits (-160.0 20.0)
           (-70.0 70.0)
           (-60.0 70.0)
  end
  begin
     id 3 
     name ltibia
     direction 0.34202 -0.939693 0   
     length 7.7045   
     axis 0 0 20   XYZ
    dof rx
    limits (-10.0 170.0)
  end
  begin
     id 4 
     name lfoot
     direction 0.0673888 -0.185149 0.980397   
     length 2.09456   
     axis -90 7.62852e-016 20   XYZ
    dof rx rz
    limits (-45.0 90.0)
           (-70.0 20.0)
  end
  begin
     id 5 
     name ltoes
     direction 1.53575e-011 -4.21994e-011 1   
     length 1.05543   
     axis -90 7.62852e-016 20   XYZ
    dof rx
    limits (-90.0 20.0)
  end
  begin
     id 6 
     name rhipjoint
     direction -0.489018 -0.800347 0.346851   
     length 2.27268  
     axis 0 0 0  XYZ 
  end
  begin
     id 7 
     name rfemur
     direction -0.34202 -0.939693 0   
     length 7.55487   
     axis 0 0 -20   XYZ
    dof rx ry rz
    limits (-160.0 20.0)
           (-70.0 70.0)
           (-70.0 60.0)
  end
  begin
     id 8 
     name rtibia
     direction -0.34202 -0.939693 0   
     length 7.78969   
     axis 0 0 -20   XYZ
    dof rx
    limits (-10.0 170.0)
 end
 begin
     id 9 
     name rfoot
     direction -0.0859318 -0.236096 0.967923   
     length 2.19143  
     axis -90 -7.62852e-016 -20   XYZ
    dof rx rz
    limits (-45.0 90.0)
           (-20.0 70.0)
  end
  begin
     id 10 
     name rtoes
     direction -1.53538e-011 -4.21989e-011 1   
     length 1.09845   
     axis -90 -7.62852e-016 -20   XYZ
    dof rx
    limits (-90.0 20.0)
  end
  begin
     id 11 
     name lowerback
     direction -0.00762546 0.998978 -0.0445553   
     length 1.98161   
     axis 0 0 0   XYZ
    dof rx ry rz
    limits (-20.0 45.0)
           (-30.0 30.0)
           (-30.0 30.0)
  end
  begin
     id 12 
     name upperback
     direction 0.0422361 0.998867 -0.0219156   
     length 1.97558   
     axis 0 0 0   XYZ
    dof rx ry rz
    limits (-20.0 45.0)
           (-30.0 30.0)
           (-30.0 30.0)
  end
  begin
     id 13 
     name thorax
     direction 0.0442465 0.999021 7.47603e-005   
     length 1.97799   
     axis 0 0 0   XYZ
    dof rx ry rz
    limits (-20.0 45.0)
           (-30.0 30.0)
           (-30.0 30.0)
  end
  begin
     id 14 
     name lowerneck
     direction 0.00312169 0.984641 0.174564   
     length 1.78995   
     axis 0 0 0   XYZ
    dof rx ry rz
    limits (-20.0 45.0)
           (-30.0 30.0)
           (-30.0 30.0)
  end
  begin
     id 15 
     name upperneck
     direction -0.0383028 0.985255 -0.166749   
     length 1.83053   
     axis 0 0 0   XYZ
    dof rx ry rz
    limits (-20.0 45.0)
           (-30.0 30.0)
           (-30.0 30.0)
  end
  begin
     id 16
     name head
     direction -0.0129546 0.997059 -0.0755386  
     length 1.84088  
     axis 0 0 0   XYZ
    dof rx ry rz
    limits (-20.0 45.0)
           (-30.0 30.0)
           (-30.0 30.0)
  end
  begin
     id 17 
     name lclavicle
     direction 0.912857 0.370519 -0.171488  
     length 3.51279  
     axis 0 0 0   XYZ
    dof ry rz
    limits (-20.0 10.0)
           (0.0 20.0)
  end
  begin
     id 18 
     name lhumerus
     direction 1 -4.48962e-011 3.64361e-027   
     length 4.95663   
     axis 180 -30 -90   XYZ
    dof rx ry rz
    limits (-60.0 90.0)
           (-90.0 90.0)
           (-90.0 90.0)
  end
  begin
     id 19
     name lradius
     direction 1 -4.48974e-011 5.97202e-027   
     length 3.38177   
     axis 180 -30 -90   XYZ
    dof rx
    limits (-10.0 170.0)
  end
  begin
     id 20
     name lwrist
     direction 1 -4.4896e-011 9.83288e-027   
     length 1.69088   
     axis -9.31221e-015 90 90   XYZ
    dof ry
    limits (-180.0 0.0)
 end
  begin
     id 21 
     name lhand
     direction 1 -4.4902e-011 1.96551e-026   
     length 0.662909   
     axis -1.25475e-014 90 90   XYZ
    dof rx rz
    limits (-90.0 90.0)
           (-45.0 45.0)
  end
  begin
     id 22 
     name lfingers
     direction 1 -4.48971e-011 3.93277e-026   
     length 0.534454   
     axis -2.50945e-014 90 90   XYZ
    dof rx
    limits (0.0 90.0)
  end
  begin
     id 23
     name lthumb
     direction 0.707107 -6.34933e-011 0.707107   
     length 0.767373   
     axis -90 45 -4.80359e-014   XYZ
    dof rx rz
    limits (-45.0 45.0)
           (-45.0 45.0)
  end
  begin
     id 24 
     name rclavicle
     direction -0.900919 0.395364 -0.178976   
     length 3.40627  
     axis 0 0 0   XYZ 
    dof ry rz
    limits (-10.0 20.0)
           (-20.0 0.0)
  end
  begin
     id 25 
     name rhumerus
     direction -1 -4.48969e-011 1.03875e-027  
     length 5.08365   
     axis 180 30 90   XYZ
    dof rx ry rz
    limits (-90.0 60.0)
           (-90.0 90.0)
           (-90.0 90.0)
  end
  begin
     id 26 
     name rradius
     direction -1 -4.48951e-011 5.02733e-027   
     length 3.35984   
     axis 180 30 90   XYZ
    dof rx
    limits (-10.0 170.0)
  end
  begin
     id 27 
     name rwrist
     direction -1 -4.49011e-011 9.82828e-027   
     length 1.67992   
     axis -9.31221e-015 -90 -90   XYZ
    dof ry
    limits (-180.0 0.0)
  end
  begin
     id 28
     name rhand
     direction -1 -4.48894e-011 1.96774e-026   
     length 0.820764   
     axis -1.25475e-014 -90 -90   XYZ
    dof rx rz
    limits (-90.0 90.0)
           (-45.0 45.0)
  end
  begin
     id 29
     name rfingers
     direction -1 -4.49095e-011 3.92833e-026   
     length 0.661721   
     axis -2.50945e-014 -90 -90   XYZ
    dof rx
    limits (0.0 90.0)
  end
  begin
     id 30
     name rthumb
     direction -0.707107 -6.34881e-011 0.707107   
     length 0.950103   
     axis -90 -45 4.80359e-014   XYZ
    dof rx rz
    limits (-45.0 45.0)
           (-45.0 45.0)
  end
:hierarchy
  begin
    root lhipjoint rhipjoint lowerback
    lhipjoint lfemur
    lfemur ltibia
    ltibia lfoot
    lfoot ltoes
    rhipjoint rfemur
    rfemur rtibia
    rtibia rfoot
    rfoot rtoes
    lowerback upperback
    upperback thorax
    thorax lowerneck lclavicle rclavicle
    lowerneck upperneck
    upperneck head
    lclavicle lhumerus
    lhumerus lradius
    lradius lwrist
    lwrist lhand lthumb
    lhand lfingers
    rclavicle rhumerus
    rhumerus rradius
    rradius rwrist
    rwrist rhand rthumb
    rhand rfingers
  end

#!OML:ASF I:\golf\golf\golf 2\Subject 1\2002-09-07\Subject1.ASF
:FULLY-SPECIFIED
:DEGREES
31
root -8.12223 17.8192 0.168151 -117.472 85.9529 -131.521
lowerback 3.78367 1.4009 -1.9715
upperback 4.52207 1.92342 4.50973
thorax 2.33015 0.903248 5.75506
lowerneck -15.6939 -2.07598 1.66779
upperneck 38.9595 0.108824 -4.88825
head 16.7043 0.158862 -2.29364
rclavicle 1.15295e-014 1.19271e-014
rhumerus -0.764645 -3.52306 -100.123
rradius 18.5475
rwrist -30.2063
rhand -13.1506 -8.36042
rfingers 7.12502
rthumb 12.9481 -37.9387
lclavicle 1.15295e-014 1.19271e-014
lhumerus -5.93152 -35.6299 110.831
lradius 24.5101
lwrist 40.0238
lhand 169.214 62.7346
lfingers 7.12502
lthumb -164.774 33.315
rfemur -26.137 -0.345992 11.3524
rtibia 26.8484
rfoot -9.32287 -10.9688
rtoes -3.67454
lfemur -28.4902 5.87274 -8.59824
ltibia 27.9482
lfoot -9.77033 -2.80372
ltoes -20.3708
32
root -8.11997 17.8188 0.168107 -116.816 85.9315 -130.834
lowerback 3.8074 1.41055 -1.94068
upperback 4.54831 1.93807 4.54261
thorax 2.34243 0.911186 5.77184
lowerneck -15.6801 -2.0836 1.62514
upperneck 38.9373 0.109605 -4.88787
head 16.6894 0.15239 -2.28472
rclavicle -1.19271e-014 1.27222e-014
rhumerus -0.786168 -3.31424 -100.078
rradius 18.6327
rwrist -30.4274
rhand -13.2687 -8.42328
rfingers 7.12502
rthumb 12.8342 -38.0087
lclavicle -1.19271e-014 1.27222e-014
lhumerus -5.93659 -35.6877 110.877
lradius 24.4645
lwrist 39.7357
lhand 169.355 62.8807
lfingers 7.12502
lthumb -164.638 33.4714
rfemur -26.1097 -0.309729 11.4012
rtibia 26.861
rfoot -9.35096 -10.951
rtoes -3.20334
lfemur -28.449 5.9076 -8.54493
ltibia 27.971
lfoot -9.79653 -2.83184
ltoes -20.501
33
root -8.11797 17.8183 0.168147 -116.232 85.8526 -130.27
lowerback 3.77684 1.40631 -1.82149
upperback 4.54265 1.93497 4.54819
thorax 2.35701 0.912892 5.71042
lowerneck -15.631 -2.07155 1.6409
upperneck 38.9212 0.118401 -4.87602
head 16.6686 0.160419 -2.27923
rclavicle -2.78299e-015 -4.21423e-014
rhumerus -0.822838 -3.42106 -100.111
rradius 18.7064
rwrist -30.4322
rhand -13.2638 -8.54141
rfingers 7.12502
rthumb 12.8389 -38.1266
lclavicle -2.78299e-015 -4.21423e-014
lhumerus -5.99789 -35.8691 110.887
lradius 24.4613
lwrist 39.5807
lhand 169.449 62.8404
lfingers 7.12502
lthumb -164.547 33.4381
rfemur -26.1422 -0.334041 11.5116
rtibia 26.8867
rfoot -9.36185 -10.9179
rtoes -3.10018
lfemur -28.4751 5.92171 -8.44439
ltibia 27.9792
lfoot -9.87657 -2.76765
ltoes -20.6712
34
root -8.11622 17.8162 0.168951 -116.26 85.8288 -130.295
lowerback 3.7743 1.39339 -1.7998
upperback 4.5427 1.91819 4.54656
thorax 2.36099 0.90506 5.69679
lowerneck -15.612 -2.05724 1.65574
upperneck 38.9352 0.144856 -4.8902
head 16.6727 0.17253 -2.28351
rclavicle 1.63003e-014 2.14687e-014
rhumerus -0.861418 -3.50838 -100.149
rradius 18.7571
rwrist -30.3995
rhand -13.2896 -8.59907
rfingers 7.12502
rthumb 12.814 -38.1858
lclavicle 1.63003e-014 2.14687e-014
lhumerus -6.01318 -35.862 110.865
lradius 24.462
lwrist 39.575
lhand 169.466 62.8335
lfingers 7.12502
lthumb -164.531 33.4324
rfemur -26.1394 -0.396944 11.5533
rtibia 26.903
rfoot -9.30461 -10.8598
rtoes -3.51745
lfemur -28.5364 5.9874 -8.46916
ltibia 27.9934
lfoot -9.93007 -2.63582
ltoes -21.9282
35
root -8.11497 17.8148 0.169968 -116.65 85.8324 -130.648
lowerback 3.80741 1.36584 -1.86393
upperback 4.5617 1.88113 4.58456
thorax 2.36378 0.884385 5.7741
lowerneck -15.6033 -2.05126 1.56068
upperneck 38.9284 0.190559 -4.89835
head 16.6707 0.175984 -2.26146
rclavicle 1.55052e-014 2.14687e-014
rhumerus -0.915489 -3.2142 -100.12
rradius 18.807
rwrist -30.5243
rhand -13.5232 -8.56117
rfingers 7.12502
rthumb 12.5888 -38.1619
lclavicle 1.55052e-014 2.14687e-014
lhumerus -5.98826 -35.7156 110.879
lradius 24.4533
lwrist 39.5026
lhand 169.452 62.7797
lfingers 7.12502
lthumb -164.544 33.3777
rfemur -26.1014 -0.434277 11.5393
rtibia 26.9263
rfoot -9.30605 -10.8319
rtoes -3.77824
lfemur -28.5535 6.01506 -8.52147
ltibia 27.9981
lfoot -9.92751 -2.58157
ltoes -22.5747
36
root -8.11327 17.8163 0.17035 -116.682 85.8435 -130.663
lowerback 3.79819 1.35188 -1.9144
upperback 4.57727 1.86199 4.62152
thorax 2.38515 0.872569 5.84329
lowerneck -15.5606 -2.04767 1.50732
upperneck 38.8691 0.223338 -4.9361
head 16.6307 0.175073 -2.2603
rclavicle -1.55052e-014 2.38542e-014
rhumerus -0.975231 -2.94735 -100.085
rradius 18.8586
rwrist -30.6861
rhand -13.7089 -8.50742
rfingers 7.12502
rthumb 12.4098 -38.119
lclavicle -1.55052e-014 2.38542e-014
lhumerus -5.98364 -35.6742 110.887
lradius 24.4885
lwrist 39.5251
lhand 169.47 62.6757
lfingers 7.12502
lthumb -164.526 33.275
rfemur -26.1002 -0.479704 11.5374
rtibia 26.96
rfoot -9.34334 -10.82
rtoes -3.69724
lfemur -28.4629 5.92058 -8.46917
ltibia 27.9898
lfoot -9.88282 -2.67359
ltoes -21.1834
37
root -8.11155 17.817 0.171062 -116.595 85.8801 -130.591
lowerback 3.76358 1.36249 -1.96419
upperback 4.58391 1.87487 4.63236
thorax 2.40843 0.876792 5.88418
lowerneck -15.5289 -2.03851 1.4905
upperneck 38.8161 0.236413 -4.93558
head 16.5953 0.176814 -2.25254
rclavicle 9.14409e-015 4.05521e-014
rhumerus -1.04562 -2.82901 -100.056
rradius 18.956
rwrist -30.8276
rhand -13.7724 -8.46137
rfingers 7.12502
rthumb 12.3485 -38.0767
lclavicle 9.14409e-015 4.05521e-014
lhumerus -5.97122 -35.7111 110.88
lradius 24.4843
lwrist 39.4795
lhand 169.644 62.7285
lfingers 7.12502
lthumb -164.359 33.3408
rfemur -26.1233 -0.484347 11.5185
rtibia 26.9731
rfoot -9.30479 -10.8437
rtoes -3.96745
lfemur -28.4219 5.88871 -8.45838
ltibia 28.0015
lfoot -9.84475 -2.77227
ltoes -20.5499
38
root -8.10972 17.8158 0.172018 -116.598 85.9062 -130.633
lowerback 3.69391 1.3773 -1.96075
upperback 4.596 1.89371 4.60536
thorax 2.45865 0.88507 5.85565
lowerneck -15.5237 -2.01828 1.43378
upperneck 38.8118 0.230272 -4.79835
head 16.5917 0.184421 -2.18212
rclavicle -2.78299e-015 -2.70347e-014
rhumerus -1.11831 -2.67203 -100.017
rradius 19.0978
rwrist -30.986
rhand -13.7645 -8.42606
rfingers 7.12502
rthumb 12.3561 -38.0409
lclavicle -2.78299e-015 -2.70347e-014
lhumerus -5.91957 -35.6687 110.843
lradius 24.4007
lwrist 39.2602
lhand 169.841 62.879
lfingers 7.12502
lthumb -164.169 33.5062
rfemur -26.1563 -0.418228 11.4823
rtibia 26.9704
rfoot -9.31503 -10.8742
rtoes -3.96115
lfemur -28.5089 6.01541 -8.53902
ltibia 28.0341
lfoot -9.88332 -2.77759
ltoes -21.3114
39
root -8.10804 17.815 0.171097 -116.285 85.8521 -130.375
lowerback 3.60816 1.3697 -1.85571
upperback 4.60196 1.88492 4.59782
thorax 2.51682 0.882462 5.79055
lowerneck -15.5266 -1.98667 1.3805
upperneck 38.8158 0.254403 -4.6929
head 16.5962 0.200733 -2.12147
rclavicle -1.07344e-014 -2.78299e-014
rhumerus -1.14354 -2.62028 -100.013
rradius 19.1457
rwrist -30.9909
rhand -13.6529 -8.38821
rfingers 7.12502
rthumb 12.4638 -37.9966
lclavicle -1.07344e-014 -2.78299e-014
lhumerus -5.88249 -35.6415 110.791
lradius 24.376
lwrist 39.1365
lhand 169.913 62.9114
lfingers 7.12502
lthumb -164.1 33.5442
rfemur -26.2061 -0.325434 11.5126
rtibia 26.9696
rfoot -9.4122 -10.9272
rtoes -3.12841
lfemur -28.6141 6.10858 -8.52415
ltibia 28.0619
lfoot -9.86428 -2.824
ltoes -21.2301
40
root -8.10616 17.8147 0.169117 -116.627 85.7977 -130.725
lowerback 3.6258 1.34128 -1.8225
upperback 4.58578 1.84839 4.63513
thorax 2.49414 0.865669 5.81081
lowerneck -15.5472 -1.96215 1.31191
upperneck 38.8559 0.318583 -4.68387
head 16.627 0.219542 -2.09491
rclavicle -1.55052e-014 3.97569e-015
rhumerus -1.1999 -2.55102 -99.9932
rradius 19.1626
rwrist -31.0107
rhand -13.6335 -8.36016
rfingers 7.12502
rthumb 12.4824 -37.9674
lclavicle -1.55052e-014 3.97569e-015
lhumerus -5.88854 -35.5846 110.815
lradius 24.3895
lwrist 39.0231
lhand 170.001 62.8994
lfingers 7.12502
lthumb -164.015 33.5389
rfemur -26.1904 -0.302853 11.5319
rtibia 26.9717
rfoot -9.40792 -11.0051
rtoes -3.07006
lfemur -28.6033 5.99645 -8.4542
ltibia 28.0613
lfoot -9.81862 -2.89434
ltoes -20.4776
41
root -8.10287 17.815 0.168378 -116.864 85.7487 -130.929
lowerback 3.68139 1.35367 -1.74813
upperback 4.57064 1.86717 4.63503
thorax 2.44694 0.878702 5.76562
lowerneck -15.5344 -1.99048 1.33033
upperneck 38.8988 0.280944 -4.69076
head 16.6444 0.208455 -2.10872
rclavicle -6.36111e-015 1.59028e-015
rhumerus -1.27026 -2.5566 -99.985
rradius 19.2332
rwrist -31.1578
rhand -13.695 -8.38853
rfingers 7.12502
rthumb 12.4232 -37.9993
lclavicle -6.36111e-015 1.59028e-015
lhumerus -5.92724 -35.5663 110.862
lradius 24.3515
lwrist 38.8485
lhand 170.061 62.9491
lfingers 7.12502
lthumb -163.958 33.5932
rfemur -26.1273 -0.304237 11.5745
rtibia 26.9782
rfoot -9.28222 -11.0775
rtoes -4.20292
lfemur -28.5253 5.87882 -8.37736
ltibia 28.037
lfoot -9.89522 -2.81663
ltoes -21.1117
